<?xml version="1.0" encoding="UTF-8"?>
<svg id="Layer_2" data-name="Layer 2" xmlns="http://www.w3.org/2000/svg" width="78.6" height="31.9" version="1.1" viewBox="0 0 78.6 31.9">
  <defs>
    <style>
      .cls-1 {
        fill: #103356;
        stroke-width: 0px;
      }
    </style>
  </defs>
  <g id="Layer_1-2" data-name="Layer 1-2">
    <polygon class="cls-1" points="7.9 7.5 7.9 12.5 16.5 12.5 16.5 19.2 7.9 19.2 7.9 31 0 31 0 .8 17.4 .8 17.4 7.5 7.9 7.5"/>
    <path class="cls-1" d="M30,.8h-11.1v30.2h11.1c8.4,0,15.4-6.6,15.4-15.1S38.4.8,30,.8ZM28.5,24.4h-1.8V7.5h1.9c5.1,0,8.6,3.1,8.6,8.5s-4,8.5-8.7,8.5h0Z"/>
    <rect class="cls-1" x="46.5" y=".8" width="7.9" height="30.2"/>
    <path class="cls-1" d="M78.6,10.9c-1.6-2.2-4.2-3.3-6.9-3.3-4.8,0-8.1,3.7-8.1,8.4s3.3,8.2,8.2,8.2,5.1-1.2,6.8-3.2v9.4c-2.6.8-4.5,1.4-6.9,1.4-4.2,0-8.2-1.6-11.3-4.4-3.3-3-4.8-6.9-4.8-11.4s1.6-8.1,4.5-11.1C62.8,1.8,67.1,0,71.4,0s4.8.6,7.2,1.5c0,0,0,9.4,0,9.4Z"/>
  </g>
</svg>