<?xml version="1.0" encoding="utf-8"?>
<!-- Generator: Adobe Illustrator 24.0.1, SVG Export Plug-In . SVG Version: 6.00 Build 0)  -->
<svg version="1.1" id="Layer_1" xmlns="http://www.w3.org/2000/svg" xmlns:xlink="http://www.w3.org/1999/xlink" x="0px" y="0px"
	 viewBox="0 0 142.2 59.5" style="enable-background:new 0 0 142.2 59.5;" xml:space="preserve">
<style type="text/css">
	.st0{fill:#0047BA;}
	.st1{fill-rule:evenodd;clip-rule:evenodd;fill:#0047BA;}
	.st2{fill:#FFFFFF;}
</style>
<g>
	<path class="st0" d="M62.5,54.8c1.5-0.3,2-0.8,2-2.4v-10c-0.7,0-1.4,0.2-1.9,0.7l-0.1-0.4c1.3-0.8,2.7-1.4,3.7-2.6v12.4
		c0,1.5,0.4,2.1,1.9,2.3v0.4c-0.9,0-1.8-0.1-2.7-0.1c-0.9,0-1.8,0-2.8,0.1V54.8z"/>
	<path class="st0" d="M70.9,52.2h0.4c0.3,1.8,1.4,2.8,2.9,2.8c1.1,0,1.8-0.7,1.8-1.7c0-1.2-1-1.6-2.6-2.3c-1.5-0.7-2.3-1.4-2.3-2.7
		c0-1.4,1.2-2.5,2.9-2.5c0.8,0,1.5,0.4,1.9,0.4c0.3,0,0.5-0.1,0.6-0.4h0.3v2.7h-0.4c-0.2-1.4-1.1-2.2-2.3-2.2c-1,0-1.6,0.5-1.6,1.3
		c0,0.9,0.7,1.3,2,1.9c1.9,0.9,2.9,1.6,2.9,3.2c0,1.6-1.3,2.8-3.1,2.8c-1.1,0-1.9-0.6-2.3-0.6c-0.3,0-0.5,0.2-0.6,0.5h-0.3V52.2z"/>
	<path class="st0" d="M81.7,46h3.1v0.7h-3.1v4.7c0,2.1,0.4,3,1.7,3c0.5,0,1.1-0.2,1.7-0.6l0.2,0.2c-0.8,0.9-1.9,1.3-2.8,1.3
		c-1.8,0-2.5-1.3-2.5-3.8v-5h-1.7v-0.4c1.4-0.8,2.4-2,2.9-3.4h0.5V46z"/>
	<path class="st0" d="M92.6,54.8c1.4,0,1.9-0.8,1.9-2.7v-8.6c0-1.9-0.5-2.7-1.9-2.7v-0.4h4.8c4.1,0,6.1,1.2,6.1,3.5
		c0,1.5-1.1,2.8-3.2,3.5c2.6,0.5,4.1,2,4.1,3.9c0,2.6-2,3.8-6.1,3.8h-5.7V54.8z M96.5,47.2H98c2.3,0,3.6-1.2,3.6-3.1
		c0-1.9-1.5-3.1-4-3.1c-0.4,0-0.7,0-1.1,0.1V47.2z M96.5,52.2c0,1.8,0.3,2.4,2.2,2.4c2.2,0,3.5-1.3,3.5-3.4c0-2.2-1.5-3.5-4.3-3.5
		h-1.4V52.2z"/>
	<path class="st0" d="M108.8,55.4c-1.5,0-2.4-1-2.4-2.3c0-2,1.8-2.4,5.2-3.5v-0.3c0-1.7-0.7-2.6-2-2.6c-1.1,0-2,0.7-2.4,1.9h-0.4
		c0.4-1.7,1.7-2.8,3.3-2.8c2.3,0,3.3,1.3,3.3,3.9v3.5c0,0.9,0.1,1.3,0.5,1.3c0.3,0,0.5-0.3,0.6-0.8h0.3c-0.1,1.1-0.8,1.9-1.7,1.9
		c-0.7,0-1.3-0.5-1.5-1.3C110.8,54.9,109.8,55.4,108.8,55.4 M111.5,50c-2.3,0.8-3.4,1.2-3.4,2.8c0,1.1,0.7,1.8,1.6,1.8
		c0.7,0,1.3-0.4,1.8-1.2V50z"/>
	<path class="st0" d="M120.3,54.8v0.4c-0.8,0-1.5-0.1-2.3-0.1c-0.8,0-1.6,0-2.4,0.1v-0.4c1.3,0,1.6-0.4,1.6-1.7v-4.5
		c0-1.5-0.3-2.1-1.4-2.1h-0.1v-0.4c1.1,0,2.2-0.1,3.3-0.3v1.9c1.1-1.3,2.2-1.9,3.4-1.9c2,0,2.9,1.4,2.9,4.2V53
		c0,1.3,0.3,1.7,1.6,1.7v0.4c-0.8,0-1.6-0.1-2.4-0.1c-0.8,0-1.6,0-2.3,0.1v-0.4c1.2-0.1,1.5-0.5,1.5-1.7v-3.2c0-2.1-0.6-3.1-2-3.1
		c-1,0-1.9,0.6-2.6,1.6V53C118.8,54.3,119.1,54.7,120.3,54.8"/>
	<path class="st0" d="M133.3,48c0.3-0.3,0.5-0.6,0.5-0.8c0-0.4-0.4-0.7-1.1-0.7v-0.4c0.7,0,1.5,0,2.3,0c0.8,0,1.6,0,2.5,0v0.4
		c-1.2,0.1-2.1,0.4-2.9,1.1l-2.4,2l4.4,4.3c0.6,0.5,1.1,0.8,1.8,0.9v0.4c-0.5,0-1-0.1-1.5-0.1c-0.5,0-1,0-1.4,0.1l-4.7-4.7l-0.3,0.2
		V53c0,1.2,0.3,1.7,1.4,1.7v0.4c-0.8,0-1.5-0.1-2.3-0.1c-0.8,0-1.6,0-2.4,0.1v-0.4c1.3,0,1.6-0.4,1.6-1.7V41.5
		c0-1.5-0.3-2.1-1.4-2.1h-0.1v-0.3c1.2-0.1,2.3-0.2,3.3-0.4v11.4L133.3,48z"/>
	<rect class="st1" width="59.5" height="59.5"/>
	<path class="st2" d="M2.9,51.2h0.4c0.2,2.2,1.6,3.5,3.6,3.5c1.8,0,3.1-1.2,3.1-2.7c0-1.7-1.3-2.5-3.4-3.8C4.3,46.8,3,45.7,3,43.6
		c0-2.1,1.7-3.8,4-3.8c1.3,0,2.2,0.5,2.8,0.5c0.3,0,0.6-0.2,0.6-0.5h0.4v3.3h-0.4c-0.3-1.8-1.5-2.9-3.3-2.9c-1.7,0-2.7,0.9-2.7,2.3
		c0,1.1,0.7,2.1,1.9,2.9c1.4,0.9,2.7,1.5,3.6,2.3c1.1,0.8,1.7,2.1,1.7,3.3c0,2.3-2,4.1-4.5,4.1c-1.4,0-2.4-0.6-3.1-0.6
		c-0.3,0-0.6,0.2-0.6,0.6H2.9V51.2z"/>
	<path class="st2" d="M18.2,55.3c-2.8,0-4.9-2.1-4.9-4.9c0-2.7,2-4.8,4.7-4.8c2.3,0,3.9,1.4,3.9,3.7h-6.8c0,3.3,1.5,5.3,3.9,5.3
		c1.1,0,2-0.5,2.9-1.6l0.3,0.3C21.1,54.6,19.8,55.3,18.2,55.3 M20.1,48.8c0-1.8-1-2.8-2.4-2.8c-1.4,0-2.3,1-2.6,2.8H20.1z"/>
	<path class="st2" d="M26.5,47.5c1.4-1.3,2.4-1.9,3.3-1.9c0.4,0,0.8,0.1,1.3,0.4l-0.7,1.6c-0.7-0.3-1.4-0.5-1.9-0.5
		c-0.7,0-1.4,0.3-2,1v4.7c0,1.3,0.3,1.7,1.6,1.7v0.4c-0.8,0-1.7-0.1-2.5-0.1c-0.8,0-1.6,0-2.4,0.1v-0.4c1.3,0,1.6-0.4,1.6-1.7v-4.5
		c0-1.5-0.4-2.1-1.5-2.1h-0.1v-0.4c1.2-0.1,2.3-0.2,3.4-0.3V47.5z"/>
	<path class="st2" d="M34.2,47.7c-0.4-1-0.8-1.5-1.6-1.5h-0.1v-0.4c0.8,0,1.5,0,2.3,0c0.7,0,1.4,0,2.1,0v0.4c-0.7,0.1-1,0.3-1,0.8
		c0,0.2,0.1,0.4,0.2,0.7l2.1,5.1l2-5c0.1-0.3,0.2-0.5,0.2-0.8c0-0.6-0.3-0.8-1.1-0.9v-0.4c0.5,0,1.1,0,1.6,0c0.5,0,1.1,0,1.7,0v0.4
		c-1,0-1.5,0.6-2,1.9l-2.8,7.1h-0.4L34.2,47.7z"/>
	<path class="st2" d="M47.1,52.9c0,1.2,0.3,1.7,1.5,1.7v0.4c-0.8,0-1.6-0.1-2.4-0.1c-0.8,0-1.6,0-2.4,0.1v-0.4
		c1.3,0,1.6-0.4,1.6-1.7v-4.5c0-1.5-0.3-2.1-1.4-2.1h-0.1v-0.4c1.2-0.1,2.3-0.2,3.3-0.3V52.9z M45.9,40.7c0.6,0,1.2,0.5,1.2,1.2
		c0,0.6-0.5,1.2-1.2,1.2c-0.6,0-1.2-0.6-1.2-1.2C44.8,41.2,45.3,40.7,45.9,40.7"/>
	<path class="st2" d="M50.1,52h0.4c0.3,1.8,1.4,2.8,2.9,2.8c1.1,0,1.8-0.7,1.8-1.7c0-1.2-1-1.6-2.6-2.3c-1.5-0.7-2.3-1.4-2.3-2.7
		c0-1.4,1.2-2.5,2.9-2.5c0.8,0,1.5,0.4,1.9,0.4c0.3,0,0.5-0.1,0.6-0.4h0.3v2.7h-0.4c-0.2-1.4-1.1-2.2-2.3-2.2c-1,0-1.6,0.5-1.6,1.3
		c0,0.9,0.7,1.3,2,1.9c1.9,0.9,2.9,1.6,2.9,3.2c0,1.6-1.3,2.8-3.1,2.8c-1.1,0-1.9-0.6-2.3-0.6c-0.3,0-0.5,0.2-0.6,0.5h-0.3V52z"/>
</g>
<g>
	<path class="st0" d="M142.2,46c0,1-0.8,1.7-1.8,1.7c-1,0-1.8-0.8-1.8-1.7c0-1,0.8-1.7,1.8-1.7C141.5,44.2,142.2,45,142.2,46z
		 M139.1,46c0,0.8,0.6,1.4,1.3,1.4c0.8,0,1.3-0.6,1.3-1.4c0-0.8-0.6-1.4-1.3-1.4C139.7,44.6,139.1,45.2,139.1,46z M140.2,46.9h-0.4
		v-1.7c0.2,0,0.4-0.1,0.7-0.1c0.3,0,0.5,0.1,0.6,0.1c0.1,0.1,0.2,0.2,0.2,0.4c0,0.2-0.1,0.3-0.4,0.4v0c0.2,0.1,0.3,0.2,0.3,0.4
		c0.1,0.3,0.1,0.4,0.1,0.4h-0.4c-0.1-0.1-0.1-0.2-0.1-0.4c0-0.2-0.1-0.3-0.4-0.3h-0.2V46.9z M140.2,45.9h0.2c0.2,0,0.4-0.1,0.4-0.3
		c0-0.2-0.1-0.3-0.4-0.3c-0.1,0-0.2,0-0.2,0V45.9z"/>
</g>
</svg>
