<?xml version="1.0" encoding="utf-8"?>
<!-- Generator: Adobe Illustrator 24.0.1, SVG Export Plug-In . SVG Version: 6.00 Build 0)  -->
<svg version="1.1" id="Layer_1" xmlns="http://www.w3.org/2000/svg" xmlns:xlink="http://www.w3.org/1999/xlink" x="0px" y="0px"
	 viewBox="0 0 505.1 105.6" style="enable-background:new 0 0 505.1 105.6;" xml:space="preserve">
<style type="text/css">
	.st0{fill:#365072;}
	.st1{fill:#FFFFFF;}
	.st2{fill:#F1F1F1;}
</style>
<path class="st0" d="M0,81.6c0-1.9,1.5-3.5,3.5-3.5h0C1.5,78.2,0,79.7,0,81.6c0,1.9,1.5,3.5,3.5,3.5h0C1.6,85.1,0,83.6,0,81.6"/>
<path class="st1" d="M441.1,78.2H133.2l0,6.9h307.9c1.9,0,3.5-1.5,3.5-3.5C444.6,79.7,443,78.2,441.1,78.2"/>
<path class="st2" d="M3.5,78.2c-1.9,0-3.5,1.5-3.5,3.5c0,1.9,1.5,3.5,3.5,3.5h104.2v-6.9H3.5z"/>
<polygon class="st2" points="183.1,21.1 197.3,74.2 211.8,74.2 225.5,21.1 225.5,74.2 246.6,74.2 246.6,0 216.8,0 206.5,39.4 
	195.7,0 166,0 166,74.2 183.1,74.2 "/>
<polygon class="st1" points="21.9,21.1 36.1,74.2 50.6,74.2 64.3,21.1 64.3,74.2 85.4,74.2 85.4,0 55.6,0 45.3,39.4 34.6,0 4.8,0 
	4.8,74.2 21.9,74.2 "/>
<path class="st2" d="M285.8,75.3c9.3,0,16.7-2.8,22.3-8.3c5.6-5.5,8.4-12.4,8.4-20.7c0-8.2-2.8-15-8.3-20.4
	c-5.5-5.4-12.8-8.2-21.9-8.2c-9,0-16.3,2.8-22,8.3c-5.6,5.5-8.4,12.4-8.4,20.6c0,7.7,2.7,14.4,8.1,20.1
	C269.3,72.4,276.6,75.3,285.8,75.3 M280.7,34.9c1.2-2.4,3-3.5,5.5-3.5c2.7,0,4.6,1.1,5.6,3.4c1.1,2.3,1.6,6,1.6,11.2
	c0,3.8-0.4,7.5-1.1,10.9s-2.8,5.2-6.2,5.2c-2.4,0-4.2-1-5.4-3.1c-1.2-2-1.8-6.2-1.8-12.6C278.9,41.1,279.5,37.2,280.7,34.9"/>
<path class="st2" d="M346.6,41c0-5.5,2-8.3,5.9-8.3c1.3,0,2.5,0.4,3.3,1.2c0.9,0.8,1.3,2.6,1.3,5.5v34.8h21.7V38.8
	c0-6-0.6-10.3-1.8-12.7c-1.2-2.4-3.2-4.4-6-6c-2.8-1.5-6.2-2.3-10.2-2.3c-7.6,0-12.9,3-15.9,9v-7.8h-20.1v55.2h21.7V41z"/>
<path class="st2" d="M417.4,17.8c-9.1,0-16.4,2.8-21.9,8.5c-5.5,5.7-8.2,12.7-8.2,20.9c0,8,2.8,14.6,8.3,20c5.5,5.4,13,8.1,22.3,8.1
	c8.4,0,15-1.9,19.9-5.7c4.9-3.8,8-8.4,9.2-13.9l-20.2-1.4c-0.8,4.5-3.6,6.8-8.3,6.8c-3.3,0-5.5-0.8-6.6-2.5
	c-1.2-1.7-1.8-4.3-1.8-7.7h37c0-1.3,0.1-2.4,0.1-3.1c0-9.2-2.7-16.5-8.2-21.9C433.4,20.4,426.3,17.8,417.4,17.8 M409.9,40
	c0-6.3,2.6-9.5,7.7-9.5c2.2,0,4,0.6,5.4,1.9c1.5,1.3,2.2,3.8,2.3,7.5H409.9z"/>
<path class="st2" d="M489.3,18.9l-9.5,29.5l-9.1-29.5h-23.2l19.8,51.2c0.6,1.6,0.9,2.8,0.9,3.7c0,2.7-3.1,4.1-9.3,4.1
	c-2.4,0-5-0.2-7.8-0.7v15.4c5.7,0.3,9.3,0.5,10.9,0.5c6.5,0,11.3-1.3,14.4-3.8c3.1-2.6,5.5-6.1,7.2-10.6l21.7-59.9H489.3z"/>
<path class="st2" d="M129.3,28.3c0,4.8-3.9,8.6-8.6,8.6c-4.8,0-8.6-3.9-8.6-8.6c0-4.8,3.9-8.6,8.6-8.6
	C125.4,19.6,129.3,23.5,129.3,28.3"/>
<path class="st1" d="M149.6,18.7c-1.8-1.4-4.5-1.1-5.9,0.7l-15.1,19.2v0c-4.1,5.2-11.9,5.2-16,0v0l-15-19.1
	c-1.3-1.7-3.8-2.3-5.7-1.1c-2.1,1.4-2.6,4.2-1,6.1L107.8,46c3.1,4,4.9,9,4.9,14.1v37.3c0,4.3,3.2,8,7.5,8.3c4.7,0.3,8.5-3.4,8.5-8
	V60c0-5.1,1.7-10.1,4.9-14.1l16.8-21.4C151.7,22.7,151.4,20.1,149.6,18.7"/>
</svg>
